<?xml version="1.0" encoding="utf-8"?>
<!-- Generator: Adobe Illustrator 22.0.0, SVG Export Plug-In . SVG Version: 6.00 Build 0)  -->
<svg version="1.1" xmlns="http://www.w3.org/2000/svg" xmlns:xlink="http://www.w3.org/1999/xlink" x="0px" y="0px"
	 viewBox="0 0 50 50" style="enable-background:new 0 0 50 50;" xml:space="preserve">
<style type="text/css">
	.st0{display:none;}
	.st1{display:inline;}
	.st2{fill:#FFFFFF;}
	.st3{fill:url(#SVGID_1_);}
	.st4{opacity:0.1;fill:url(#SVGID_2_);}
	.st5{opacity:0.1;fill:#00BFFF;stroke:#FFFFFF;stroke-width:3;stroke-miterlimit:10;}
	.st6{fill:#07294D;}
	.st7{opacity:5.000000e-02;fill:url(#);}
	.st8{opacity:0.2;}
	.st9{fill:#005AA9;}
	.st10{opacity:0.5;}
	.st11{fill:#C3C4C7;}
	.st12{fill:url(#SVGID_5_);}
	.st13{fill:url(#SVGID_6_);}
	.st14{opacity:0.1;fill:#00BFFF;}
	.st15{opacity:0.1;fill:#005AA9;}
	.st16{opacity:0.1;}
	.st17{clip-path:url(#SVGID_10_);}
	.st18{opacity:0.56;fill:url(#SVGID_11_);}
	.st19{opacity:0.56;fill:url(#SVGID_12_);}
	.st20{opacity:0.5;fill:url(#SVGID_13_);}
	.st21{opacity:0.43;fill:url(#SVGID_14_);}
	.st22{opacity:0.43;fill:url(#SVGID_15_);}
	.st23{opacity:0.43;fill:url(#SVGID_16_);}
	.st24{opacity:0.29;fill:url(#SVGID_17_);}
	.st25{fill:none;stroke:#F6921E;stroke-width:1.176;stroke-miterlimit:10;stroke-dasharray:9.9753,9.9753;}
	.st26{fill:url(#SVGID_18_);}
	.st27{fill:#F6921E;}
	.st28{fill:#A5CD39;}
	.st29{clip-path:url(#SVGID_20_);}
	.st30{opacity:0.1;fill:#FFFFFF;}
	.st31{fill:url(#SVGID_23_);}
	.st32{opacity:0.15;fill:#00BFFF;}
	.st33{fill:#FF0066;}
	.st34{fill:#00BFFF;}
	.st35{opacity:0.67;}
	.st36{opacity:0.7;}
	.st37{opacity:0.1;fill:#A5CD39;}
	.st38{fill:#FEF8E8;}
	.st39{opacity:0.3;fill:#FFFFFF;}
	.st40{fill:#EC1C24;}
	.st41{opacity:0.2;fill:none;stroke:#A5CD39;stroke-width:2.7587;stroke-miterlimit:10;}
	.st42{opacity:0.2;fill:none;stroke:#F6921E;stroke-width:2.7587;stroke-miterlimit:10;}
	.st43{fill:url(#SVGID_28_);}
	.st44{opacity:0.4;}
	.st45{fill:url(#SVGID_29_);}
	.st46{fill:#DADADA;}
	.st47{fill:none;stroke:#00BFFF;stroke-width:1.6667;stroke-linecap:round;stroke-miterlimit:10;}
	.st48{opacity:0.15;fill:#F6921E;}
	.st49{fill:none;stroke:#F6921E;stroke-width:1.6667;stroke-linecap:round;stroke-miterlimit:10;}
	.st50{opacity:0.15;fill:#A5CD39;}
	.st51{fill:none;stroke:#A5CD39;stroke-width:1.6667;stroke-linecap:round;stroke-miterlimit:10;}
	.st52{opacity:0.6;}
	.st53{opacity:0.15;fill:#EC1C24;}
	.st54{fill:none;stroke:#EC1C24;stroke-width:1.6667;stroke-linecap:round;stroke-miterlimit:10;}
	.st55{opacity:0.2;fill:#F6921E;}
	.st56{opacity:0.15;fill:#0099DB;}
	.st57{fill:#D2D3D4;}
	.st58{opacity:0.34;}
	.st59{fill:#0099DB;}
	.st60{fill:none;stroke:#07294D;stroke-width:1.1746;stroke-miterlimit:10;}
	.st61{fill:#92BA38;}
	.st62{opacity:0.48;fill:#92BA38;}
	.st63{fill:#C67B1B;}
	.st64{fill:none;stroke:#07294D;stroke-width:1.1744;stroke-linecap:round;stroke-miterlimit:10;}
	.st65{fill:#E4A97B;}
	.st66{opacity:0.42;}
	.st67{fill:#E4801D;}
	
		.st68{opacity:0.26;fill:none;stroke:#FFFFFF;stroke-width:0.783;stroke-linecap:round;stroke-linejoin:round;stroke-miterlimit:10;}
	.st69{opacity:0.26;fill:#FFFFFF;}
	.st70{opacity:0.61;clip-path:url(#SVGID_69_);}
	.st71{opacity:0.39;}
	.st72{fill:#BDBFC0;}
	.st73{opacity:0.2;fill:#0099DB;}
	.st74{opacity:0.21;}
	.st75{clip-path:url(#SVGID_71_);}
	.st76{fill:#015996;}
	.st77{fill:none;stroke:#07294D;stroke-width:0.7812;stroke-miterlimit:10;}
	.st78{fill:none;stroke:#005AA9;stroke-width:1.1279;stroke-linecap:round;stroke-linejoin:round;stroke-miterlimit:10;}
	.st79{fill:#065080;}
	.st80{fill:#86E0FC;}
	.st81{fill:none;stroke:#86E0FC;stroke-width:0.8014;stroke-linecap:round;stroke-linejoin:round;stroke-miterlimit:10;}
	.st82{opacity:0.18;fill:#E4A97B;}
	.st83{opacity:0.45;fill:#92BA38;}
	.st84{fill:none;stroke:#A5CD39;stroke-width:1.253;stroke-linecap:round;stroke-linejoin:round;stroke-miterlimit:10;}
	.st85{fill:#92BA38;stroke:#A5CD39;stroke-width:1.253;stroke-linecap:round;stroke-linejoin:round;stroke-miterlimit:10;}
	.st86{fill:#FFFFFF;stroke:#005AA9;stroke-width:1.253;stroke-linecap:round;stroke-linejoin:round;stroke-miterlimit:10;}
	.st87{fill:none;stroke:#005AA9;stroke-width:1.253;stroke-linecap:round;stroke-linejoin:round;stroke-miterlimit:10;}
	.st88{fill:#FDFDFD;}
	.st89{fill:#FE0208;}
	.st90{fill:#025BB1;}
	.st91{fill:#2B99D6;}
	.st92{fill:none;stroke:#005AA9;stroke-width:0.8298;stroke-linecap:round;stroke-linejoin:round;stroke-miterlimit:10;}
	.st93{fill:#FFFFFF;stroke:#005AA9;stroke-width:0.8298;stroke-linecap:round;stroke-linejoin:round;stroke-miterlimit:10;}
	.st94{fill:none;stroke:#FFFFFF;stroke-width:0.8298;stroke-linecap:round;stroke-linejoin:round;stroke-miterlimit:10;}
	.st95{opacity:0.29;}
	.st96{fill:#D7E6E8;}
	.st97{opacity:0.3;}
	.st98{fill:#FF9DA6;}
	.st99{fill:#E5A7B0;}
	
		.st100{opacity:0.17;fill:none;stroke:#2B99D6;stroke-width:0.8301;stroke-linecap:round;stroke-linejoin:round;stroke-miterlimit:10;}
	.st101{fill:#E08023;}
	.st102{opacity:0.57;fill:#E4A97B;}
	.st103{opacity:0.26;}
	.st104{fill:#D81C24;}
	.st105{opacity:0.3;fill:#015996;}
	.st106{opacity:0.3;fill:none;stroke:#2B99D6;stroke-width:0.1467;stroke-miterlimit:10;}
	.st107{clip-path:url(#SVGID_73_);}
	.st108{opacity:0.2;fill:url(#SVGID_74_);}
	.st109{opacity:0.2;fill:url(#SVGID_75_);}
	.st110{opacity:0.2;fill:url(#SVGID_76_);}
	.st111{opacity:0.2;fill:url(#SVGID_77_);}
	.st112{opacity:0.2;fill:url(#SVGID_78_);}
	.st113{opacity:0.2;fill:url(#SVGID_79_);}
	.st114{opacity:0.2;fill:url(#SVGID_80_);}
	.st115{opacity:0.2;fill:url(#SVGID_81_);}
	.st116{opacity:0.2;fill:url(#SVGID_82_);}
	.st117{opacity:0.2;fill:url(#SVGID_83_);}
	.st118{opacity:0.2;fill:url(#SVGID_84_);}
	.st119{opacity:0.2;fill:url(#SVGID_85_);}
	.st120{opacity:0.2;fill:url(#SVGID_86_);}
	.st121{opacity:0.2;fill:url(#SVGID_87_);}
	.st122{opacity:0.2;fill:url(#SVGID_88_);}
	.st123{opacity:0.15;fill:url(#SVGID_89_);}
	.st124{opacity:0.35;fill:#00BFFF;}
	.st125{opacity:0.15;fill:#009ADC;}
	.st126{fill:#E5AA7B;}
	.st127{fill:#009ADC;}
	.st128{fill:#D3D4D5;}
	.st129{fill:#93BB38;}
	.st130{fill:#BEC0C1;}
	.st131{opacity:0.2;fill:#009ADC;}
	.st132{clip-path:url(#SVGID_91_);}
	.st133{fill:#015997;}
	.st134{fill:none;stroke:#07294D;stroke-width:0.7914;stroke-miterlimit:10;}
	.st135{fill:#E5801D;}
	.st136{fill:#1D80B8;}
	.st137{opacity:0.33;}
	.st138{fill:none;stroke:#07294D;stroke-width:0.8117;stroke-miterlimit:10;}
	.st139{fill:none;stroke:#07294D;stroke-width:0.8117;stroke-linecap:round;stroke-linejoin:round;stroke-miterlimit:10;}
	.st140{fill:#D81C24;stroke:#B70F1B;stroke-width:0.8117;stroke-miterlimit:10;}
	.st141{fill:#D81C24;stroke:#B70F1B;stroke-width:0.5411;stroke-linejoin:round;stroke-miterlimit:10;}
	.st142{fill:#CDD8DB;}
	.st143{fill:#B70F1B;}
	.st144{fill:none;stroke:#A5CD39;stroke-width:0.9727;stroke-linecap:round;stroke-linejoin:round;stroke-miterlimit:10;}
	.st145{fill:#93BB38;stroke:#A5CD39;stroke-width:0.9727;stroke-linecap:round;stroke-linejoin:round;stroke-miterlimit:10;}
	.st146{fill:#FFFFFF;stroke:#005AA9;stroke-width:0.9727;stroke-linecap:round;stroke-linejoin:round;stroke-miterlimit:10;}
	.st147{fill:none;stroke:#005AA9;stroke-width:0.9727;stroke-linecap:round;stroke-linejoin:round;stroke-miterlimit:10;}
	.st148{fill:none;stroke:#07294D;stroke-width:0.9118;stroke-miterlimit:10;}
	.st149{fill:none;stroke:#07294D;stroke-width:0.9767;stroke-miterlimit:10;}
	.st150{opacity:0.48;fill:#93BB38;}
	.st151{fill:#C77B1B;}
	.st152{fill:none;stroke:#07294D;stroke-width:0.9766;stroke-linecap:round;stroke-miterlimit:10;}
	
		.st153{opacity:0.26;fill:none;stroke:#FFFFFF;stroke-width:0.6512;stroke-linecap:round;stroke-linejoin:round;stroke-miterlimit:10;}
	.st154{opacity:0.61;clip-path:url(#SVGID_93_);}
	.st155{fill:none;stroke:#005AA9;stroke-width:0.9671;stroke-linecap:round;stroke-linejoin:round;stroke-miterlimit:10;}
	.st156{fill:#D91C24;}
	.st157{fill:#2B9AD7;}
	.st158{opacity:0.3;fill:#015997;}
	.st159{opacity:0.3;fill:none;stroke:#2B9AD7;stroke-width:0.1706;stroke-miterlimit:10;}
	.st160{fill:none;stroke:#005AA9;stroke-width:0.9737;stroke-linecap:round;stroke-linejoin:round;stroke-miterlimit:10;}
	.st161{fill:#FFFFFF;stroke:#005AA9;stroke-width:0.9737;stroke-linecap:round;stroke-linejoin:round;stroke-miterlimit:10;}
	.st162{fill:none;stroke:#FFFFFF;stroke-width:0.9737;stroke-linecap:round;stroke-linejoin:round;stroke-miterlimit:10;}
	.st163{fill:#D8E7E9;}
	.st164{opacity:0.45;fill:#93BB38;}
	.st165{fill:#FF9EA7;}
	.st166{fill:#E6A8B1;}
	
		.st167{opacity:0.17;fill:none;stroke:#2B9AD7;stroke-width:0.9745;stroke-linecap:round;stroke-linejoin:round;stroke-miterlimit:10;}
	.st168{fill:#E18023;}
	.st169{opacity:0.57;fill:#E5AA7B;}
	.st170{fill:none;stroke:#005AA9;stroke-width:0.8437;stroke-linecap:round;stroke-linejoin:round;stroke-miterlimit:10;}
	.st171{fill:none;stroke:#86E0FC;stroke-width:0.5994;stroke-linecap:round;stroke-linejoin:round;stroke-miterlimit:10;}
	.st172{opacity:0.18;fill:#E5AA7B;}
	.st173{opacity:0.8;}
	.st174{fill:url(#);}
	.st175{clip-path:url(#SVGID_95_);fill:#FFD9E1;}
	.st176{clip-path:url(#SVGID_95_);}
	.st177{fill:#0063CA;}
	.st178{clip-path:url(#SVGID_95_);fill:#FFD2DB;}
	.st179{clip-path:url(#SVGID_97_);}
	.st180{fill:#66E9D4;}
	.st181{fill:#303030;}
	.st182{fill:#96EBE4;}
	.st183{clip-path:url(#SVGID_99_);fill:#FFB3C3;}
	.st184{clip-path:url(#SVGID_99_);fill:url(#);}
	.st185{clip-path:url(#SVGID_99_);fill:#FFE2BE;}
	.st186{clip-path:url(#SVGID_101_);}
	.st187{fill:#00DAB8;}
	.st188{clip-path:url(#SVGID_101_);fill:#0063CA;}
	.st189{clip-path:url(#SVGID_101_);fill:url(#);}
	.st190{clip-path:url(#SVGID_101_);fill:#FFC47D;}
	.st191{clip-path:url(#SVGID_103_);}
	.st192{fill:#FFD2DB;}
	.st193{fill:#EBD700;}
	.st194{fill:#C0F3EF;}
	.st195{opacity:0.1;fill:#F6921E;}
	.st196{opacity:0.1;fill:none;stroke:#07294D;stroke-miterlimit:10;}
	.st197{opacity:0.2;fill:none;stroke:#00BFFF;stroke-width:8;stroke-miterlimit:10;}
	.st198{fill:none;stroke:#00BFFF;stroke-width:8;stroke-linecap:round;stroke-miterlimit:10;}
	.st199{opacity:0.2;fill:#EC1C24;}
	.st200{opacity:0.2;fill:#005AA9;}
	.st201{opacity:0.2;fill:url(#);}
	.st202{opacity:0.1;fill:#EC1C24;}
	.st203{fill:none;stroke:#00BFFF;stroke-width:2;stroke-linecap:round;stroke-miterlimit:10;stroke-dasharray:11.9627,11.9627;}
	.st204{fill:none;stroke:#00BFFF;stroke-width:1.5368;stroke-linecap:round;stroke-miterlimit:10;stroke-dasharray:9.1924,9.1924;}
	.st205{fill:none;stroke:#00BFFF;stroke-width:1.0213;stroke-linecap:round;stroke-miterlimit:10;stroke-dasharray:6.1089,6.1089;}
	.st206{fill:none;stroke:#D7E7FF;stroke-width:3;stroke-miterlimit:10;}
	.st207{fill:#CECECE;}
	.st208{fill:url(#SVGID_120_);}
	.st209{fill:none;stroke:#FFFFFF;stroke-width:1.6667;stroke-linecap:round;stroke-miterlimit:10;}
	.st210{fill:none;stroke:#FFFFFF;stroke-width:2;stroke-miterlimit:10;}
	.st211{clip-path:url(#SVGID_122_);}
	.st212{fill:#00BFFF;stroke:#FFFFFF;stroke-miterlimit:10;}
	.st213{fill:none;stroke:#00BFFF;stroke-width:1.5122;stroke-linecap:round;stroke-miterlimit:10;}
	.st214{fill:none;stroke:#FFFFFF;stroke-width:2.9679;stroke-linecap:round;stroke-miterlimit:10;}
</style>
<g id="Layer_3" class="st0">
</g>
<g id="Layer_1">
	<path class="st27" d="M42.2,9.2h-6.6V5.8c0-0.6-0.5-1.1-1-1.1H15.4c-0.6,0-1,0.5-1,1.1v3.4H7.8c-1,0-1.8,0.8-1.8,1.8v3.6
		c0,5.4,4.1,10,9.4,10.6c1.4,2.9,4.2,4.9,7.5,5.2v4.7h-2.3c-0.6,0-1.1,0.5-1.1,1v2.7h-3.3c-0.6,0-1,0.5-1,1v4.4c0,0.6,0.5,1,1,1
		h17.6c0.6,0,1-0.5,1-1v-4.3c0-0.6-0.5-1-1-1h-3.3v-2.7c0-0.6-0.5-1-1.1-1h-2.3v-4.7c3.3-0.3,6.2-2.3,7.5-5.2
		c5.3-0.7,9.4-5.2,9.4-10.6v-3.6C44.1,10,43.2,9.2,42.2,9.2z M14.4,21.3c-2.8-0.9-4.8-3.6-4.8-6.6v-1.8h4.7L14.4,21.3L14.4,21.3z
		 M30.1,15l-1.9,2.1c-0.1,0.1-0.1,0.2-0.1,0.3l0.3,2.8c0,0.3-0.3,0.6-0.6,0.5l-2.6-1.2c-0.1,0-0.3,0-0.4,0l-2.6,1.2
		c-0.3,0.1-0.6-0.1-0.6-0.5l0.3-2.8c0-0.1,0-0.3-0.1-0.3L19.9,15c-0.2-0.3-0.1-0.6,0.2-0.7l2.8-0.6c0.1,0,0.2-0.1,0.3-0.2l1.4-2.5
		c0.2-0.3,0.6-0.3,0.8,0l1.4,2.5c0,0.1,0.2,0.2,0.3,0.2l2.8,0.6C30.2,14.4,30.3,14.8,30.1,15z M40.4,14.7c0,3.1-2,5.7-4.7,6.6v-8.4
		h4.7V14.7z"/>
	<path class="st28" d="M42.2,9.2h-6.6V5.8c0-0.6-0.5-1.1-1-1.1H15.4c-0.6,0-1,0.5-1,1.1v3.4H7.8c-1,0-1.8,0.8-1.8,1.8v3.6
		c0,5.4,4.1,10,9.4,10.6c1.4,2.9,4.2,4.9,7.5,5.2v4.7h-2.3c-0.6,0-1.1,0.5-1.1,1v2.7h-3.3c-0.6,0-1,0.5-1,1v4.4c0,0.6,0.5,1,1,1
		h17.6c0.6,0,1-0.5,1-1v-4.3c0-0.6-0.5-1-1-1h-3.3v-2.7c0-0.6-0.5-1-1.1-1h-2.3v-4.7c3.3-0.3,6.2-2.3,7.5-5.2
		c5.3-0.7,9.4-5.2,9.4-10.6v-3.6C44.1,10,43.2,9.2,42.2,9.2z M14.4,21.3c-2.8-0.9-4.8-3.6-4.8-6.6v-1.8h4.7L14.4,21.3L14.4,21.3z
		 M30.1,15l-1.9,2.1c-0.1,0.1-0.1,0.2-0.1,0.3l0.3,2.8c0,0.3-0.3,0.6-0.6,0.5l-2.6-1.2c-0.1,0-0.3,0-0.4,0l-2.6,1.2
		c-0.3,0.1-0.6-0.1-0.6-0.5l0.3-2.8c0-0.1,0-0.3-0.1-0.3L19.9,15c-0.2-0.3-0.1-0.6,0.2-0.7l2.8-0.6c0.1,0,0.2-0.1,0.3-0.2l1.4-2.5
		c0.2-0.3,0.6-0.3,0.8,0l1.4,2.5c0,0.1,0.2,0.2,0.3,0.2l2.8,0.6C30.2,14.4,30.3,14.8,30.1,15z M40.4,14.7c0,3.1-2,5.7-4.7,6.6v-8.4
		h4.7V14.7z"/>
	<path class="st27" d="M30.1,15l-1.9,2.1c-0.1,0.1-0.1,0.2-0.1,0.3l0.3,2.8c0,0.3-0.3,0.6-0.6,0.5l-2.6-1.2c-0.1,0-0.3,0-0.4,0
		l-2.6,1.2c-0.3,0.1-0.6-0.1-0.6-0.5l0.3-2.8c0-0.1,0-0.3-0.1-0.3L19.9,15c-0.2-0.3-0.1-0.6,0.2-0.7l2.8-0.6c0.1,0,0.2-0.1,0.3-0.2
		l1.4-2.5c0.2-0.3,0.6-0.3,0.8,0l1.4,2.5c0,0.1,0.2,0.2,0.3,0.2l2.8,0.6C30.2,14.4,30.3,14.8,30.1,15z"/>
	<path class="st212" d="M30.1,15l-1.9,2.1c-0.1,0.1-0.1,0.2-0.1,0.3l0.3,2.8c0,0.3-0.3,0.6-0.6,0.5l-2.6-1.2c-0.1,0-0.3,0-0.4,0
		l-2.6,1.2c-0.3,0.1-0.6-0.1-0.6-0.5l0.3-2.8c0-0.1,0-0.3-0.1-0.3L19.9,15c-0.2-0.3-0.1-0.6,0.2-0.7l2.8-0.6c0.1,0,0.2-0.1,0.3-0.2
		l1.4-2.5c0.2-0.3,0.6-0.3,0.8,0l1.4,2.5c0,0.1,0.2,0.2,0.3,0.2l2.8,0.6C30.2,14.4,30.3,14.8,30.1,15z"/>
	<path class="st9" d="M22.8,35.1h-2.3c-0.6,0-1.1,0.5-1.1,1v2.7h-3.3c-0.6,0-1,0.5-1,1v4.4c0,0.6,0.5,1,1,1h17.6c0.6,0,1-0.5,1-1
		v-4.3c0-0.6-0.5-1-1-1h-3.3v-2.7c0-0.6-0.5-1-1.1-1h-2.3"/>
</g>
<g id="Layer_2">
</g>
</svg>
